<?xml version="1.0" encoding="utf-8"?>
<svg xmlns="http://www.w3.org/2000/svg" xmlns:xlink="http://www.w3.org/1999/xlink" x="0" y="0" width="500" height="100" viewBox="0 0 500 100">
<path id="path3637" fill="#231F20" d="M496.46,64.84c0,0.64-0.53,0.71-1.05,0.71h-0.46v-1.42h0.67C496.24,64.13,496.46,64.42,496.46,64.84 M497.54,68.07l-1.05-1.48c-0.19-0.26-0.32-0.44-0.52-0.6c0.76-0.1,1.19-0.51,1.19-1.16c0-0.67-0.47-1.27-1.38-1.27h-1.47v4.5h0.65v-2.02c0.35,0,0.49,0.11,0.71,0.44l1.09,1.58H497.54z"/>
<path id="path3633" fill="#231F20" d="M499.35,65.86c0,2.17-1.57,3.74-3.69,3.74c-2.12,0-3.7-1.57-3.7-3.74c0-2.17,1.58-3.75,3.7-3.75C497.78,62.11,499.35,63.68,499.35,65.86 M500,65.86c0-2.4-1.94-4.35-4.34-4.35c-2.39,0-4.34,1.95-4.34,4.35c0,2.4,1.95,4.35,4.34,4.35C498.06,70.2,500,68.26,500,65.86"/>
<path id="path3747" fill="#0E0D0F" d="M463.54,45.43l21.5-23.25h-10.3l-21.58,23.25l23.71,24.79h10.44L463.54,45.43z"/>
<path id="path3731" fill="#0E0D0F" d="M453.17,70.21h-8.05V22.18h8.05V70.21z"/>
<path id="path3743" fill="#0E0D0F" d="M418.94,29.11c-4.91,0-9.08,1.48-9.1,4.74c-0.03,3.81,2.37,5.14,11.4,8.07c9.98,3.28,15.29,6.62,15.23,14.74c-0.05,9.15-7.13,14.38-17.46,14.38c-7.31,0-13.87-2.37-18.87-6.77l3.11-7.53c4.54,3.8,10.04,6.5,15.98,6.52c5.2,0.03,8.9-2.5,8.9-6.25c0-3.13-1.81-5.22-10.57-7.99c-10.05-3.29-16.12-6.73-16.07-14.92c0.06-8.14,7.7-12.77,17.3-12.73c9.61,0.05,15.01,3.56,15.83,4.04l-3.02,6.85C429.64,31.2,425.34,29.11,418.94,29.11"/>
<path id="path3729" fill="#0E0D0F" d="M392.86,30h-25.72v12.22h16.48v7.56h-16.48v12.76h25.74v7.68h-34.23V22.17h34.22V30z"/>
<path id="path3755" fill="#0E0D0F" d="M325.16,62.53l-9.7,0.01V30.01h9.74c9.43,0,16.29,6.69,16.29,16.12C341.49,55.57,334.59,62.53,325.16,62.53 M325.16,22.18h-18.22v48.04l18.22,0c13.71,0,24.83-10.36,24.83-24.08C349.99,32.41,338.87,22.18,325.16,22.18"/>
<path id="path3751" fill="#0E0D0F" d="M273.2,63.29c-9.44,0-16.33-7.65-16.33-17.09s6.89-17.09,16.33-17.09s16.34,7.65,16.34,17.09S282.64,63.29,273.2,63.29 M273.2,21.35c-13.72,0-24.84,11.13-24.84,24.85s11.12,24.84,24.84,24.84c13.72,0,24.84-11.12,24.84-24.84S286.92,21.35,273.2,21.35"/>
<path id="path3725" fill="#0E0D0F" d="M231.27,70.21h-8.51V30h-15.23v-7.82h39.66L243.91,30h-12.65V70.21z"/>
<path id="path3759" fill="#0E0D0F" d="M198.24,48.93c0,14.32-8.4,22.04-20.59,22.04c-12.18,0-20.58-7.72-20.58-22.04V22.18h8.51v27.76c0,8.4,4.93,13.33,12.08,13.33c7.15,0,12.08-4.93,12.08-13.33V22.18h8.5V48.93z"/>
<path id="path3721" fill="#0E0D0F" d="M128.21,31.92l-8.23,19.22h16.54L128.21,31.92z M153.39,70.21h-8.92l-4.87-11.59h-22.71l-4.94,11.59h-8.64l21.14-48.38h7.81L153.39,70.21z"/>
<linearGradient id="grad1" gradientUnits="userSpaceOnUse" x1="1085.1885" y1="-2431.8848" x2="1358.313" y2="-2377.4653" gradientTransform="matrix(0.1741 0 0 -0.1741 -182.1184 -344.3895)"><stop  offset="0" style="stop-color:#2B7A77"/><stop  offset="0.5105" style="stop-color:#4EBAA9"/><stop  offset="1" style="stop-color:#5CC2B1"/>
</linearGradient>
<path id="path4460" fill="url(#grad1)" d="M16.31,91.56c-2.37,0-3.59-0.89-4.77-2.96L0.75,68.62C0.01,67.18,0,66.71,0,65.68l16.94,0.75l3.88,3.88H54.8L26.58,87.78C25.21,88.59,19.98,91.56,16.31,91.56z"/>
<linearGradient id="grad2" gradientUnits="userSpaceOnUse" x1="1232.2812" y1="-2066.1826" x2="1096.7461" y2="-2384.4849" gradientTransform="matrix(0.1741 0 0 -0.1741 -182.1184 -344.3895)"><stop  offset="0" style="stop-color:#236736"/><stop  offset="0.4928" style="stop-color:#6BA443"/><stop  offset="1" style="stop-color:#86C146"/>
</linearGradient>
<path id="path4458" fill="url(#grad2)" d="M20.83,70.3H6.18C1.75,70.3,0,67.98,0,65.68c0-1.46,0.47-2.26,1.12-3.88l21.35-50.98l0.23-0.45L23,9.91l0.61-0.6l0.9-0.48l1.31-0.29l2.25,0.06l14.84,5.52l-5.02,15.82L20.83,70.3z"/>
<linearGradient id="grad3" gradientUnits="userSpaceOnUse" x1="1262.0547" y1="-2035.6606" x2="1461.2512" y2="-2510.0361" gradientTransform="matrix(0.1741 0 0 -0.1741 -182.1184 -344.3895)"><stop  offset="0" style="stop-color:#29A5E3"/><stop  offset="0.5155" style="stop-color:#356EB9"/><stop  offset="1" style="stop-color:#394DA5"/>
</linearGradient>
<path id="path4456" fill="url(#grad3)" d="M63.86,91.56l-33.71-79.8c-0.58-1.36-1.51-3.11-3.92-3.11c-2.15,0-3.18,1.04-3.76,2.16c0.3-0.81,1.21-2.38,3.83-2.38h23.26c2.14,0,3.17,1.26,3.64,2.42L87.3,91.56H63.86z"/>
</svg>
