<svg xmlns="http://www.w3.org/2000/svg" width="256" height="256" viewBox="0 0 256 256">
<path d="M201.9,151.2c-2.3,1-4.6,1.4-6.9,1.4c-3.6,0-6.9-0.6-9.8-1.9c-2.9-1.3-5.4-3-7.4-5.2c-2-2.2-3.5-4.8-4.6-7.8c-1.1-3-1.6-6.2-1.6-9.7c0-3.6,0.5-6.9,1.6-9.9c1.1-3,2.6-5.7,4.6-8c2-2.3,4.4-4.1,7.4-5.3c2.9-1.3,6.2-1.9,9.8-1.9c2.4,0,4.8,0.4,7.1,1.1c2.3,0.7,4.4,1.8,6.2,3.2s3.4,3.2,4.6,5.3c1.2,2.1,1.9,4.5,2.2,7.2h-10c-0.6-2.7-1.8-4.7-3.6-6c-1.8-1.3-3.9-2-6.5-2c-2.4,0-4.4,0.5-6,1.4c-1.6,0.9-3,2.1-4,3.7c-1,1.5-1.8,3.3-2.2,5.2c-0.5,2-0.7,4-0.7,6.1c0,2,0.2,4,0.7,5.8c0.5,1.9,1.2,3.6,2.2,5.1c1,1.5,2.4,2.7,4,3.6c1.6,0.9,3.6,1.4,6,1.4c3.5,0,6.1-0.9,8-2.6c1.9-1.8,3-4.3,3.3-7.6h-10.5v-7.8h20v25.7h-6.6l-1.1-5.4C206.2,148.6,204.2,150.3,201.9,151.2z"/>
<path d="M232.8,104v38.8H256v8.8h-33.6V104H232.8z"/>
<path d="M183.4,157.5c-16,9.7-39.9,15.2-66.6,15.2c-48.1,0-87.1-20-87.1-44.7s39-44.7,87.1-44.7c26.8,0,50.8,5.6,66.8,15.4c-17.4-16.4-48.7-27.9-84.5-27.9C44.4,70.8,0,96.4,0,128c0,31.6,44.4,57.2,99.1,57.2C134.7,185.2,165.9,173.8,183.4,157.5z"/>
<path d="M59.4,151.6h-7.3l-13.3-50.6h7.5l9.5,41.2h0.1l11.5-41.2H75l11.5,41.2h0.1l9.5-41.2h8l-13.8,50.6H83l-11.7-42h-0.1L59.4,151.6z"/>
<path d="M130.5,141.1c-0.2,1.6-1.7,6.3-6,9.2c-1.6,1-3.7,2.3-9.2,2.3c-9.5,0-15-7.1-15-16.8c0-10.4,4.9-18.7,16.1-18.7c9.8,0,14.6,7.7,14.6,19.6h-24.6c0,7,3.2,11,9.7,11c5.4,0,8.5-4.1,8.7-6.6H130.5z M125.1,132.2c-0.3-5.2-2.5-10-9.5-10c-5.2,0-9.3,4.8-9.3,10H125.1z"/>
<path d="M136.2,151.6v-46h5.7v16.7h0.1c2.5-3.5,5.8-5.1,9.8-5.2c9,0,14.2,7.3,14.2,16.7c0,8-3.5,18.7-15,18.7c-5.8,0-8.2-3.3-9.3-5.1h-0.1v4.2H136.2L136.2,151.6z M150.7,122.2c-8.2,0-9.1,8.8-9.1,14.2c0,8.9,5.6,11.3,9.3,11.3c6.2,0,9.1-5.6,9.1-12.9C160,130.5,159.6,122.2,150.7,122.2z"/>
</svg>
