<?xml version="1.0" encoding="utf-8"?>
<!-- Generator: Adobe Illustrator 16.0.4, SVG Export Plug-In . SVG Version: 6.00 Build 0)  -->
<!DOCTYPE svg PUBLIC "-//W3C//DTD SVG 1.1//EN" "http://www.w3.org/Graphics/SVG/1.1/DTD/svg11.dtd">
<svg version="1.1" id="レイヤー_1" xmlns="http://www.w3.org/2000/svg" xmlns:xlink="http://www.w3.org/1999/xlink" x="0px"
	 y="0px" width="256px" height="256px" viewBox="0 0 256 256" enable-background="new 0 0 256 256" xml:space="preserve">
<g>
	<g>
		<path fill-rule="evenodd" clip-rule="evenodd" d="M12.7,122h230.5c4.5,0,8.1-3.6,8.1-8.1s-3.6-8.1-8.1-8.1H12.7
			c-4.5,0-8.1,3.6-8.1,8.1S8.3,122,12.7,122z M128,22.1c-64.7,0-117.1,35.2-117.1,78.6h234.1C245.1,57.3,192.7,22.1,128,22.1z
			 M45.8,87.2c-3.4,0-6.2-1.3-6.2-2.9s2.8-2.9,6.2-2.9s6.2,1.3,6.2,2.9S49.2,87.2,45.8,87.2z M73.7,61c-3.3,1-6.3,0.6-6.8-0.9
			s1.8-3.6,5.1-4.6c3.3-1,6.3-0.6,6.8,0.9C79.3,57.9,77,60,73.7,61z M94.6,78.8c-3.4,0.5-6.4-0.4-6.6-2c-0.2-1.6,2.4-3.2,5.8-3.7
			c3.4-0.5,6.4,0.4,6.6,2C100.6,76.7,98,78.3,94.6,78.8z M105.1,39.3c-3.4,0-6.2-1.3-6.2-2.9s2.8-2.9,6.2-2.9c3.4,0,6.2,1.3,6.2,2.9
			S108.6,39.3,105.1,39.3z M122.8,60.4c0-1.6,2.8-2.9,6.2-2.9c3.4,0,6.2,1.3,6.2,2.9s-2.8,2.9-6.2,2.9
			C125.6,63.2,122.8,61.9,122.8,60.4z M137.9,89.2c-3.4,0-6.2-1.3-6.2-2.9s2.8-2.9,6.2-2.9c3.4,0,6.2,1.3,6.2,2.9
			S141.3,89.2,137.9,89.2z M161.9,47c-3.4,0.7-6.4,0-6.7-1.5c-0.3-1.5,2.1-3.4,5.5-4.1c3.4-0.7,6.4,0,6.7,1.5
			C167.7,44.5,165.3,46.3,161.9,47z M187.5,79.4c-0.5,1.5-3.5,1.9-6.8,0.8s-5.6-3.1-5.1-4.6c0.5-1.5,3.5-1.9,6.8-0.8
			C185.7,75.8,188,77.9,187.5,79.4z M207.1,66.3c-3.4,0-6.2-1.3-6.2-2.9s2.8-2.9,6.2-2.9c3.4,0,6.2,1.3,6.2,2.9
			S210.5,66.3,207.1,66.3z M50.5,212c-3.6-12.4-14.7-26-18.2-26c-13.2,0-21.3,0-21.3,0c0,27,27.1,47.9,54.1,47.9H191
			c27,0,54.1-20.9,54.1-47.9c0,0-63.9,0-125,0C99.1,186,63.9,193.5,50.5,212z M235.2,127.2h-13c0,0-21.4,26.5-42.1,26.5
			c-17.9,0-20.6-21.3-35.4-21.3c-4.9,0-7.9,5.2-13.5,5.2c-4.6,0-14.3-10.4-14.3-10.4h-96C9.3,127.2,0,136.5,0,148v12
			c0,11.5,9.3,20.8,20.8,20.8h214.4c11.5,0,20.8-9.3,20.8-20.8v-12C256,136.5,246.7,127.2,235.2,127.2z"/>
	</g>
</g>
</svg>
