<?xml version="1.0" encoding="utf-8"?>
<!-- Generator: Adobe Illustrator 16.0.4, SVG Export Plug-In . SVG Version: 6.00 Build 0)  -->
<!DOCTYPE svg PUBLIC "-//W3C//DTD SVG 1.1//EN" "http://www.w3.org/Graphics/SVG/1.1/DTD/svg11.dtd">
<svg version="1.1" id="レイヤー_1" xmlns="http://www.w3.org/2000/svg" xmlns:xlink="http://www.w3.org/1999/xlink" x="0px"
	 y="0px" width="256px" height="256px" viewBox="0 0 256 256" enable-background="new 0 0 256 256" xml:space="preserve">
<g>
	<path d="M127.8,24C70.5,24,24,70.5,24,127.8c0,57.3,46.5,103.8,103.8,103.8c57.3,0,103.8-46.5,103.8-103.8
		C231.6,70.5,185.1,24,127.8,24L127.8,24z M189.4,189.4c-8,8-17.3,14.3-27.7,18.7c-2.6,1.1-5.3,2.1-8,2.9v-15.6
		c0-8.2-2.8-14.2-8.4-18c3.5-0.3,6.7-0.8,9.7-1.4c2.9-0.6,6-1.5,9.3-2.6c3.3-1.1,6.2-2.5,8.8-4.1c2.6-1.6,5.1-3.6,7.5-6.2
		c2.4-2.5,4.4-5.4,6-8.6s2.9-7.1,3.9-11.6s1.4-9.4,1.4-14.9c0-10.5-3.4-19.4-10.2-26.8c3.1-8.1,2.8-16.9-1-26.5l-2.5-0.3
		c-1.8-0.2-4.9,0.5-9.5,2.2c-4.6,1.7-9.7,4.5-15.4,8.3c-8-2.2-16.4-3.3-25-3.3c-8.7,0-17,1.1-24.9,3.3c-3.6-2.4-7-4.4-10.2-6
		c-3.2-1.6-5.8-2.7-7.7-3.2s-3.7-0.9-5.4-1.1c-1.7-0.1-2.7-0.2-3.2-0.1c-0.5,0.1-0.8,0.1-1,0.2c-3.8,9.6-4.1,18.4-1,26.5
		c-6.8,7.4-10.2,16.3-10.2,26.8c0,5.4,0.5,10.4,1.4,14.9c0.9,4.5,2.2,8.3,3.9,11.6c1.6,3.2,3.6,6.1,6,8.6c2.4,2.5,4.9,4.6,7.5,6.2
		c2.6,1.6,5.5,3,8.8,4.1c3.3,1.1,6.4,2,9.3,2.6c2.9,0.6,6.2,1.1,9.7,1.4c-5.5,3.8-8.3,9.8-8.3,18v15.9c-3.1-0.9-6.1-2-9-3.2
		c-10.4-4.4-19.7-10.7-27.7-18.7c-8-8-14.3-17.3-18.7-27.7c-4.5-10.7-6.8-22.2-6.8-33.9s2.3-23.2,6.8-33.9
		c4.4-10.4,10.7-19.7,18.7-27.7c8-8,17.3-14.3,27.7-18.7c10.7-4.5,22.2-6.8,33.9-6.8s23.2,2.3,33.9,6.8
		c10.4,4.4,19.7,10.7,27.7,18.7c8,8,14.3,17.3,18.7,27.7c4.5,10.7,6.8,22.2,6.8,33.9s-2.3,23.2-6.8,33.9
		C203.7,172.1,197.5,181.4,189.4,189.4L189.4,189.4z M189.4,189.4"/>
</g>
</svg>
