<?xml version="1.0" encoding="utf-8"?>
<!-- Generator: Adobe Illustrator 16.0.4, SVG Export Plug-In . SVG Version: 6.00 Build 0)  -->
<!DOCTYPE svg PUBLIC "-//W3C//DTD SVG 1.1//EN" "http://www.w3.org/Graphics/SVG/1.1/DTD/svg11.dtd">
<svg version="1.1" id="レイヤー_1" xmlns="http://www.w3.org/2000/svg" xmlns:xlink="http://www.w3.org/1999/xlink" x="0px"
	 y="0px" width="256px" height="256px" viewBox="0 0 256 256" enable-background="new 0 0 256 256" xml:space="preserve">
<g>
	<path d="M229.6,65c-7.4,3.3-15.5,5.6-23.9,6.6c8.6-5.2,15.2-13.3,18.4-23.1c-8.1,4.8-17,8.3-26.5,10.1
		c-7.6-8.1-18.4-13.1-30.4-13.1c-23,0-41.7,18.7-41.7,41.7c0,3.3,0.4,6.4,1.1,9.5c-34.7-1.8-65.4-18.3-85.9-43.5
		c-3.6,6.1-5.7,13.3-5.7,21c0,14.4,7.4,27.2,18.5,34.7c-6.8-0.2-13.2-2.1-18.8-5.2v0.5c0,20.2,14.4,37.1,33.4,40.9
		c-3.5,0.9-7.2,1.4-11,1.4c-2.7,0-5.3-0.2-7.9-0.7c5.3,16.6,20.7,28.6,38.9,29c-14.3,11.2-32.3,17.8-51.8,17.8
		c-3.3,0-6.6-0.2-9.9-0.6c18.5,11.8,40.4,18.7,63.9,18.7C167,210.5,208.9,147,208.9,92l-0.1-5.4C217,80.7,224,73.4,229.6,65
		L229.6,65z M229.6,65"/>
</g>
</svg>
